<svg height="512" viewBox="0 0 64 64" width="512" xmlns="http://www.w3.org/2000/svg"><path d="m58 52h-4v-50h-44v50h-4v10h52zm-46-48h40v48h-19v-30h-2v30h-19zm44 56h-48v-6h48z"/><path d="m10 56h2v2h-2z"/><path d="m14 56h2v2h-2z"/><path d="m16 8h.279l1.772 5.316a1 1 0 0 0 1.9 0l1.77-5.316h.279v8h2v-9a1 1 0 0 0 -1-1h-2a1 1 0 0 0 -.949.684l-1.051 3.154-1.051-3.154a1 1 0 0 0 -.949-.684h-2a1 1 0 0 0 -1 1v9h2z"/><path d="m27 16h4v-2h-3v-2h3v-2h-3v-2h3v-2h-4a1 1 0 0 0 -1 1v8a1 1 0 0 0 1 1z"/><path d="m35 8h.219l1.811 7.243a1 1 0 0 0 .97.757h2a1 1 0 0 0 1-1v-9h-2v8h-.219l-1.811-7.243a1 1 0 0 0 -.97-.757h-2a1 1 0 0 0 -1 1v9h2z"/><path d="m46 16h1a3 3 0 0 0 3-3v-7h-2v7a1 1 0 0 1 -1 1h-1a1 1 0 0 1 -1-1v-7h-2v7a3 3 0 0 0 3 3z"/><path d="m14 18h36v2h-36z"/><path d="m14 30h15v-8h-15zm2-6h11v4h-11z"/><path d="m35 30h15v-8h-15zm2-6h11v4h-11z"/><path d="m14 44h15v-8h-15zm2-6h11v4h-11z"/><path d="m14 32h9v2h-9z"/><path d="m25 32h4v2h-4z"/><path d="m14 46h6v2h-6z"/><path d="m22 46h7v2h-7z"/><path d="m35 32h9v2h-9z"/><path d="m46 32h4v2h-4z"/><path d="m35 36h5v2h-5z"/><path d="m42 36h8v2h-8z"/><path d="m35 40h10v2h-10z"/><path d="m47 40h3v2h-3z"/><path d="m35 44h7v2h-7z"/><path d="m44 44h6v2h-6z"/><path d="m35 48h11v2h-11z"/><path d="m48 48h2v2h-2z"/></svg>