<svg height="512pt" viewBox="0 -71 512 512" width="512pt" xmlns="http://www.w3.org/2000/svg"><path d="m497 0h-392c-57.898438 0-105 47.101562-105 105v250.679688c0 8.285156 6.714844 15 15 15h392c57.898438 0 105-47.101563 105-105v-250.679688c0-8.285156-6.714844-15-15-15zm-90 340.679688h-242.425781v-218.480469h317.425781v143.480469c0 41.355468-33.644531 75-75 75zm-302-310.679688h377v62.199219h-450.886719c6.097657-35.273438 36.898438-62.199219 73.886719-62.199219zm-75 310.679688v-218.480469h104.574219v218.480469zm0 0"/><path d="m394.851562 172.234375c0-8.285156-6.714843-15-15-15h-161.828124c-8.285157 0-15 6.714844-15 15s6.714843 15 15 15h161.828124c8.285157 0 15-6.714844 15-15zm0 0"/><path d="m414.855469 226.679688c0-8.28125-6.71875-15-15-15h-151.828125c-8.285156 0-15 6.71875-15 15 0 8.285156 6.714844 15 15 15h151.828125c8.28125 0 15-6.714844 15-15zm0 0"/><path d="m419.855469 266.128906h-141.824219c-8.285156 0-15 6.714844-15 15 0 8.28125 6.714844 15 15 15h141.824219c8.285156 0 15-6.71875 15-15 0-8.285156-6.714844-15-15-15zm0 0"/></svg>