<svg height="478pt" viewBox="0 -23 478.43431 478" width="478pt" xmlns="http://www.w3.org/2000/svg"><path d="m54.066406 200.214844h368v224h-368zm0 0" fill="#e27f45"/><path d="m54.066406 200.214844 184 128 184-128zm0 0" fill="#fdd780"/><path d="m54.066406 424.214844 160.449219-112.238282-160.449219-111.761718zm0 0" fill="#f9bb4b"/><path d="m422.066406 424.214844-160.445312-112.238282 160.445312-111.761718zm0 0" fill="#f9bb4b"/><g fill="#d92546"><path d="m366.066406 104.214844-96-96v64s-136-16-136 128c0 0 40-64 136-64v64zm0 0"/><path d="m57.082031 392.214844c-37.023437 0-48.902343-10.023438-54.054687-19.824219-15.871094-30.175781 35.375-76.664063 45.816406-85.679687l10.457031 12.144531c-21.953125 18.960937-49.519531 52.039062-42.105469 66.160156 4.871094 9.246094 33.671876 26.265625 194.847657-15.960937l4.046875 15.488281c-78.40625 20.527343-127.695313 27.671875-159.007813 27.671875zm0 0"/><path d="m427.5625 262.03125-10.992188-11.632812c48.945313-46.222657 47.433594-64.136719 44.511719-69.695313-9.710937-18.480469-74.46875-13.855469-117.335937-4.664063l-3.359375-15.648437c109.527343-23.480469 131.5625 6.601563 134.847656 12.863281 10.488281 19.945313-4.664063 48.152344-47.671875 88.777344zm0 0"/></g><path d="m78.066406 264.214844h16v16h-16zm0 0" fill="#e27f45"/><path d="m110.066406 288.214844h16v16h-16zm0 0" fill="#e27f45"/><path d="m340.386719 160.390625 3.359375 15.648437c42.867187-9.191406 107.625-13.816406 117.335937 4.664063 2.617188 4.984375 4 20-31.015625 56.328125v-36.816406c0-4.417969-3.582031-8-8-8h-132.6875l82.34375-82.34375c3.125-3.125 3.125-8.1875 0-11.3125l-96-96c-2.289062-2.285156-5.726562-2.96875-8.714844-1.734375-2.992187 1.238281-4.941406 4.15625-4.941406 7.390625v55.496094c-18.71875-.464844-62.726562 1.871093-96 31.457031-24.957031 22.199219-38.191406 54.902343-39.695312 97.046875h-72.304688c-4.417968 0-8 3.582031-8 8v88.976562c-14.511718 13-57.808594 55.152344-43.039062 83.199219 4.640625 8.785156 14.617187 17.6875 43.039062 19.503906v32.320313c0 4.417968 3.582032 8 8 8h368c4.417969 0 8-3.582032 8-8v-164.605469c41.042969-39.304687 55.441406-66.808594 45.167969-86.355469-3.285156-6.261718-25.320313-36.34375-134.847656-12.863281zm-294.320313 215.578125c-20.09375-1.457031-26.757812-6.953125-28.871094-10.953125-5.96875-11.359375 10.703126-34.953125 28.871094-53.601563zm130.535156-268.761719c37.019532-33.007812 92-27.105469 92.546876-27.046875 2.265624.261719 4.535156-.457031 6.238281-1.972656 1.703125-1.519531 2.679687-3.691406 2.679687-5.972656v-44.6875l76.6875 76.6875-76.6875 76.6875v-44.6875c0-4.417969-3.582031-8-8-8-65.710937 0-106.222656 28.472656-126.613281 48.519531 2.054687-26.480469 13.867187-51.257813 33.148437-69.527344zm85.464844 37.167969v47.839844h-111.199218c29.253906-30.0625 69.257812-47.269532 111.199218-47.839844zm134.488282 63.839844-158.488282 110.257812-158.488281-110.257812zm-334.488282 7.3125 138.570313 96.398437-83.203125 58.195313c-18.289063 3.328125-36.789063 5.378906-55.367188 6.132812zm0 176.6875c7.761719-.175782 16.5625-.800782 26.480469-1.847656l-26.480469 18.488281zm17.394532 24 44.253906-30.960938c25.152344-4.390625 55.511718-11.054687 92.375-20.710937l-4.046875-15.488281c-20.75 5.441406-39.273438 9.871093-55.863281 13.488281l58.449218-40.878907 18.871094 13.121094c2.746094 1.90625 6.390625 1.90625 9.136719 0l18.871093-13.121094 135.167969 94.550782zm334.605468-7.359375-138.566406-96.929688 138.566406-96.398437zm0 0"/><path d="m78.066406 264.214844h16v16h-16zm0 0"/><path d="m110.066406 288.214844h16v16h-16zm0 0"/></svg>